<svg width="51" height="46" viewBox="0 0 51 46" fill="none" xmlns="http://www.w3.org/2000/svg">
<path d="M41.8573 29.5601C41.8573 29.7993 41.8573 30.0384 41.8573 30.2776C41.8584 33.1601 41.8596 36.0426 41.8607 38.9251C41.8619 39.9292 41.639 40.1591 40.6441 40.1591C27.4889 40.1603 14.3324 40.1603 1.17715 40.1591C0.260042 40.1591 0.00812712 39.9118 0.00812712 38.9901C0.00580533 28.6012 0.00928717 18.2124 0 7.82234C0 7.36146 0.143951 7.02016 0.471324 6.69627C2.57487 4.61478 4.65171 2.50775 6.77035 0.441357C7.02574 0.192925 7.47385 0.0176305 7.83257 0.0176305C21.0459 -0.00326562 34.2604 0.000217779 47.4737 0.000217779C48.2573 0.000217779 48.5533 0.249811 48.5533 0.947509C48.5568 7.19661 48.5545 13.4457 48.5533 19.6948C48.5533 19.8063 48.5371 19.9165 48.5266 20.0489C47.9787 20.0489 47.4679 20.0489 46.8921 20.0489C46.8921 14.3617 46.8921 8.70694 46.8921 2.92684C46.6727 3.11838 46.5426 3.21938 46.4277 3.33315C45.0161 4.73899 43.5975 6.13904 42.2079 7.56578C42.0186 7.76081 41.8747 8.09398 41.8735 8.36447C41.8503 11.4408 41.8666 14.5161 41.8515 17.5924C41.8491 17.9918 41.9676 18.2019 42.3274 18.3969C46.8189 20.8337 49.4542 24.5915 50.1403 29.6541C51.1468 37.0827 45.8113 44.4115 38.4291 45.714C36.9943 45.9671 35.506 45.9334 34.041 45.9984C33.4245 46.0263 33.0786 45.6861 33.0763 45.1672C33.0739 44.6471 33.4048 44.3604 34.0386 44.3337C38.8018 44.1317 42.4969 41.0054 43.3711 36.3932C43.8227 34.0133 43.3467 31.7844 42.1103 29.711C42.0744 29.6495 42.0279 29.5949 41.9861 29.5369C41.9432 29.545 41.9002 29.552 41.8573 29.5601ZM40.1566 8.40743C34.8385 8.40743 29.5866 8.40743 24.2917 8.40743C24.2917 8.6547 24.2917 8.86482 24.2917 9.07378C24.2917 10.7373 24.2964 12.4009 24.2883 14.0645C24.2848 14.7564 23.9888 15.0628 23.2992 15.0687C21.732 15.0814 20.1648 15.0803 18.5987 15.0698C17.8813 15.0652 17.5829 14.7564 17.5794 14.0308C17.5725 12.3672 17.5771 10.7037 17.5771 9.04012C17.5771 8.83464 17.5771 8.628 17.5771 8.40162C12.2509 8.40162 7.0002 8.40162 1.71812 8.40162C1.71812 18.4236 1.71812 28.4131 1.71812 38.4224C14.5483 38.4224 27.3414 38.4224 40.1821 38.4224C40.1821 38.1682 40.1821 37.958 40.1821 37.7491C40.1821 34.9444 40.1821 32.1385 40.1821 29.3337C40.1821 27.1188 40.1449 27.0584 38.1273 26.0763C37.8673 25.9497 37.6061 25.8069 37.3298 25.7338C36.3744 25.4784 35.412 25.2509 34.3439 24.9862C34.3439 25.3844 34.3439 25.5922 34.3439 25.8C34.3439 26.8831 34.3753 27.9685 34.3231 29.0493C34.308 29.3721 34.1338 29.8434 33.8935 29.9583C33.6219 30.0895 33.1111 30.0152 32.8464 29.8283C29.0201 27.135 25.2147 24.4115 21.4104 21.6858C20.7452 21.2098 20.7452 20.6061 21.4081 20.1313C25.2286 17.3962 29.0503 14.6635 32.8894 11.9551C33.1308 11.7856 33.6079 11.6962 33.832 11.8239C34.0862 11.9667 34.3022 12.3905 34.3184 12.7027C34.3753 13.8218 34.3393 14.9456 34.3428 16.0682C34.3439 16.2725 34.3648 16.4768 34.3695 16.5558C36.3523 16.7984 38.255 17.0306 40.1566 17.2627C40.1566 14.3942 40.1566 11.4211 40.1566 8.40743ZM32.6467 27.6295C32.6467 26.4745 32.6421 25.4517 32.649 24.4301C32.6537 23.7266 32.9369 23.4213 33.6219 23.4225C38.3026 23.4352 41.8654 25.4726 43.9724 29.6274C46.0806 33.7858 45.5907 37.8582 42.8394 41.6381C42.6687 41.8726 42.4807 42.0932 42.3019 42.3207C42.5294 42.2824 42.6966 42.1953 42.8487 42.085C47.0198 39.0667 48.9492 35.0012 48.4477 29.8619C47.8533 23.7672 42.5677 18.7603 36.4637 18.4492C35.5571 18.4027 34.6458 18.4318 33.738 18.4167C32.9323 18.4027 32.6548 18.123 32.6467 17.3336C32.6432 17.0433 32.6467 16.7531 32.6467 16.4629C32.6467 15.7431 32.6467 15.0222 32.6467 14.1875C29.4554 16.4664 26.3802 18.6616 23.2342 20.9068C26.3837 23.1578 29.4589 25.3542 32.6467 27.6295ZM25.4886 6.63706C25.7498 6.66957 25.823 6.68582 25.8961 6.68582C30.6918 6.68698 35.4886 6.69162 40.2843 6.67421C40.5176 6.67305 40.8008 6.52329 40.9738 6.3538C42.4238 4.93287 43.854 3.49103 45.2889 2.05384C45.3771 1.96445 45.4491 1.85881 45.5814 1.69396C45.3167 1.68119 45.1322 1.66494 44.9476 1.66494C40.7707 1.66378 36.5914 1.71834 32.4157 1.63128C31.0551 1.60341 30.0568 1.92266 29.1513 2.97327C28.0577 4.23981 26.7865 5.35311 25.4886 6.63706ZM2.95564 6.63822C3.15067 6.66724 3.22497 6.68814 3.29927 6.68814C8.09145 6.6893 12.8848 6.69278 17.677 6.67421C17.9115 6.67305 18.2005 6.53606 18.3723 6.36889C19.8223 4.94912 21.2514 3.50845 22.6839 2.07242C22.7826 1.97374 22.8604 1.85301 22.9579 1.73111C22.872 1.69397 22.8395 1.66842 22.8058 1.66842C17.9556 1.6661 13.1042 1.66378 8.25397 1.67075C8.09493 1.67075 7.88829 1.71835 7.78265 1.82283C6.19222 3.39236 4.61456 4.97698 2.95564 6.63822ZM27.9996 1.79729C27.9741 1.75317 27.9486 1.70906 27.9219 1.66378C27.2683 1.66378 26.6135 1.63128 25.9634 1.67887C25.6883 1.69861 25.3621 1.8205 25.1682 2.00857C23.7949 3.34244 22.4471 4.70417 21.0958 6.0601C20.4956 6.66144 19.6772 7.17804 19.3742 7.90592C19.07 8.6338 19.2802 9.57877 19.2744 10.4285C19.2686 11.3886 19.2732 12.3498 19.2732 13.3203C20.4178 13.3203 21.4882 13.3203 22.5992 13.3203C22.5992 11.4594 22.5725 9.64262 22.6201 7.82582C22.6305 7.44737 22.8302 7.0039 23.0844 6.71368C23.7067 6.00205 24.4102 5.36008 25.0823 4.69256C26.054 3.72786 27.028 2.76315 27.9996 1.79729Z" fill="black"/>
<path d="M3.38379 33.4202C3.38379 32.8734 3.38379 32.3754 3.38379 31.8309C6.71672 31.8309 10.0276 31.8309 13.3721 31.8309C13.3721 32.3638 13.3721 32.8746 13.3721 33.4202C10.0462 33.4202 6.74691 33.4202 3.38379 33.4202Z" fill="#0071BC"/>
<path d="M3.38379 36.7699C3.38379 36.2115 3.38379 35.7134 3.38379 35.1713C6.71904 35.1713 10.0299 35.1713 13.3756 35.1713C13.3756 35.7041 13.3756 36.2173 13.3756 36.7699C10.0531 36.7699 6.73994 36.7699 3.38379 36.7699Z" fill="#0071BC"/>
</svg>
