<svg width="22" height="22" viewBox="0 0 22 22" fill="none" xmlns="http://www.w3.org/2000/svg">
<path d="M15.7005 19.6967C15.9307 19.6967 16.1425 19.6138 16.3173 19.4296L21.6299 14.0156C21.7871 13.8589 21.888 13.6196 21.888 13.4169C21.888 12.929 21.5474 12.5974 21.0685 12.5974C20.8383 12.5974 20.6541 12.6803 20.5068 12.8276L17.9194 15.4794L16.4277 17.2197L16.52 15.0653V3.12285C16.52 2.64435 16.1794 2.30335 15.7005 2.30335C15.2216 2.30335 14.881 2.64396 14.881 3.12285V15.0653L14.973 17.2197L13.4813 15.4794L10.8939 12.8276C10.821 12.7528 10.7336 12.6938 10.6369 12.6542C10.5403 12.6146 10.4366 12.5953 10.3321 12.5974C9.85364 12.5974 9.51304 12.929 9.51304 13.4169C9.51304 13.6196 9.61439 13.8589 9.77075 14.0156L15.0834 19.4296C15.1617 19.5149 15.257 19.5828 15.3633 19.6288C15.4696 19.6748 15.5847 19.698 15.7005 19.6967ZM6.29907 19.6967C6.77796 19.6967 7.11857 19.3561 7.11857 18.8772V6.93474L7.02664 4.78032L8.51793 6.52067L11.1057 9.17246C11.1785 9.24728 11.266 9.30632 11.3627 9.34592C11.4593 9.38552 11.563 9.40484 11.6675 9.40267C12.146 9.40267 12.4775 9.0711 12.4775 8.58317C12.4775 8.38046 12.3852 8.14121 12.2289 7.98446L6.91625 2.57049C6.83743 2.48582 6.74195 2.41838 6.6358 2.3724C6.52965 2.32643 6.41514 2.30292 6.29946 2.30335C6.06925 2.30335 5.8575 2.38624 5.68268 2.57049L0.369287 7.98446C0.212929 8.14121 0.111572 8.38046 0.111572 8.58317C0.111572 9.0711 0.452179 9.40267 0.922036 9.40267C1.16129 9.40267 1.34554 9.31978 1.49286 9.17246L4.08021 6.52067L5.57189 4.78032L5.47957 6.93474V18.8772C5.47957 19.3557 5.82018 19.6967 6.29907 19.6967Z" fill="#121212"/>
</svg>
