<svg width="34" height="34" viewBox="0 0 34 34" fill="none" xmlns="http://www.w3.org/2000/svg">
<circle cx="16.8333" cy="16.8333" r="16.8333" fill="black" fill-opacity="0.5"/>
<path d="M6.50741 15.0754L6.50745 15.0754C6.54697 13.5325 7.06702 12.0436 8.31531 10.9482C9.85834 9.59339 11.6975 9.07776 13.7579 9.50888L13.7579 9.50888C14.5006 9.66435 15.227 9.91277 15.8081 10.4133L15.8082 10.4134C16.0138 10.5909 16.171 10.6375 16.3132 10.623C16.4637 10.6077 16.6178 10.5229 16.8158 10.3886L16.8159 10.3886C18.5889 9.18605 20.5172 9.0446 22.458 9.8232L22.458 9.82321C26.0983 11.2848 27.2798 15.7353 24.9157 18.8494L24.9156 18.8494C24.7275 19.0968 24.5054 19.2947 24.2434 19.454C24.2433 19.454 24.2433 19.454 24.2432 19.4541L24.1913 19.3686C23.9842 19.495 23.7993 19.4517 23.6401 19.2899L6.50741 15.0754ZM6.50741 15.0754L6.50742 15.0783C6.51419 16.8893 7.09514 18.4015 8.3784 19.5398M6.50741 15.0754L8.44476 19.465M16.7105 25.5713C16.8604 25.418 17.0097 25.2642 17.1589 25.1105C17.5374 24.7204 17.9159 24.3305 18.304 23.9497C18.601 23.6585 18.9047 23.3741 19.2084 23.0898C19.4399 22.873 19.6714 22.6563 19.8997 22.4367C20.1224 22.2228 20.3529 22.1751 20.579 22.3957C20.8195 22.6307 20.7248 22.8623 20.5166 23.0685M16.7105 25.5713L16.6392 25.5012C16.6392 25.5012 16.6392 25.5013 16.6391 25.5013M16.7105 25.5713L16.639 25.5014C16.6391 25.5014 16.6391 25.5013 16.6391 25.5013M16.7105 25.5713C16.4544 25.8318 16.2495 25.8673 15.9567 25.5624C15.2184 24.7943 14.4679 24.0406 13.6884 23.3101C12.366 22.0713 11.0933 20.7779 9.82099 19.4849C9.61916 19.2798 9.41733 19.0747 9.21532 18.8698M16.6391 25.5013C16.7884 25.3487 16.9373 25.1953 17.0863 25.0417C17.4651 24.6513 17.8449 24.26 18.234 23.8783L18.234 23.8783C18.5308 23.5873 18.8369 23.3006 19.142 23.015C19.3736 22.7981 19.6046 22.5818 19.8304 22.3646L19.8304 22.3646C19.9499 22.2499 20.0832 22.1679 20.2284 22.1537C20.3783 22.1391 20.5202 22.1986 20.6488 22.3241L20.6488 22.3242C20.7876 22.4597 20.841 22.608 20.8146 22.76C20.7897 22.9034 20.6966 23.031 20.587 23.1395M16.6391 25.5013C16.5152 25.6273 16.4238 25.6767 16.3446 25.6789C16.2674 25.681 16.1687 25.6388 16.0288 25.4932L16.0288 25.4932C15.2897 24.7242 14.5379 23.9692 13.7568 23.2372L13.7568 23.2372C12.4359 21.9998 11.1648 20.708 9.89244 19.415C9.69057 19.2098 9.48867 19.0046 9.28653 18.7996L9.21532 18.8698M20.587 23.1395C20.5871 23.1395 20.5871 23.1394 20.5871 23.1394L20.5166 23.0685M20.587 23.1395C20.587 23.1395 20.587 23.1395 20.587 23.1396L20.5166 23.0685M20.587 23.1395C20.3736 23.3518 20.1601 23.5642 19.9466 23.7765C18.8806 24.8371 17.8138 25.8983 16.7441 26.9548M20.5166 23.0685C20.3031 23.2808 20.0896 23.4932 19.8761 23.7057C18.81 24.7662 17.7434 25.8273 16.6738 26.8837M13.7374 9.60676C11.7085 9.18224 9.90126 9.68879 8.38128 11.0233C7.15862 12.0963 6.6464 13.5561 6.60742 15.0779L13.7374 9.60676ZM13.7374 9.60676C14.4734 9.76083 15.1805 10.0047 15.7429 10.4891M13.7374 9.60676L15.7429 10.4891M16.6738 26.8837C16.4355 27.1198 16.2284 27.132 15.9556 26.8538C15.6917 26.5846 15.4286 26.3146 15.1655 26.0444C14.0014 24.8496 12.8363 23.6538 11.6039 22.5309M16.6738 26.8837L16.7441 26.9548M16.6738 26.8837L16.7442 26.9547C16.7441 26.9548 16.7441 26.9548 16.7441 26.9548M16.7441 26.9548C16.6175 27.0802 16.4813 27.1646 16.3257 27.1616C16.1711 27.1586 16.0274 27.0699 15.8842 26.9238L15.8841 26.9238C15.6198 26.6541 15.3564 26.3837 15.093 26.1134C13.9291 24.9187 12.7665 23.7255 11.5365 22.6048M11.5365 22.6048C11.5365 22.6048 11.5365 22.6049 11.5365 22.6049L11.6039 22.5309M11.5365 22.6048L11.6039 22.5309M11.5365 22.6048C11.0206 22.135 10.5306 21.6409 10.0426 21.1488C10.0145 21.1205 9.98643 21.0922 9.95833 21.0638C9.44179 20.5432 8.9258 20.0263 8.3784 19.5398M11.6039 22.5309C11.0899 22.0628 10.6015 21.5704 10.1132 21.0779C9.5689 20.5291 9.02462 19.9803 8.44476 19.465M8.44476 19.465L8.3784 19.5398M8.44476 19.465L8.37833 19.5398C8.37835 19.5398 8.37837 19.5398 8.3784 19.5398M9.21532 18.8698L9.28666 18.7997C9.1995 18.711 9.10956 18.6254 9.0205 18.5412C9.01183 18.533 9.00317 18.5248 8.99453 18.5166C8.91396 18.4404 8.83439 18.3652 8.75675 18.288C8.58496 18.1173 8.42622 17.9406 8.29788 17.736M9.21532 18.8698L8.29788 17.736M8.29788 17.736C7.38886 16.2854 7.25208 13.6379 8.95356 11.967L8.95359 11.967C10.883 10.0704 13.8974 9.92624 15.8255 11.8098C16.0131 11.9931 16.184 12.0911 16.3648 12.0769C16.5403 12.0632 16.692 11.9449 16.8455 11.7927C18.8664 9.79084 22.5905 9.8782 24.5047 12.9965L8.29788 17.736ZM15.7429 10.4891C16.1805 10.867 16.4767 10.7396 16.872 10.4713L15.7429 10.4891Z" fill="white" stroke="white" stroke-width="0.2"/>
<path d="M22.2379 17.9015C22.5532 17.9559 22.6946 18.1572 22.6989 18.4734C22.7055 18.9258 22.7272 19.3817 22.6935 19.8317C22.6641 20.2177 22.8011 20.2983 23.1208 20.277C23.5525 20.2485 23.9874 20.2722 24.4213 20.2699C24.7399 20.2675 24.9693 20.4191 24.9617 20.7767C24.9541 21.1047 24.7344 21.2326 24.4354 21.2243C24.0027 21.2125 23.5666 21.2504 23.136 21.2125C22.7598 21.1793 22.6718 21.3416 22.6968 21.7134C22.7229 22.1054 22.7033 22.5009 22.7022 22.894C22.7022 23.228 22.6674 23.5738 22.2738 23.5714C21.9095 23.569 21.6855 23.363 21.7138 22.9047C21.7388 22.4926 21.6964 22.0758 21.7258 21.6648C21.753 21.2847 21.6138 21.19 21.2908 21.2137C20.9135 21.2409 20.533 21.2137 20.1535 21.2219C19.8327 21.2291 19.5478 21.1663 19.5641 20.7341C19.5805 20.3137 19.8719 20.2616 20.1872 20.2675C20.5482 20.2746 20.9114 20.2474 21.2702 20.2746C21.6073 20.3006 21.7606 20.2095 21.7269 19.7997C21.6921 19.3699 21.7345 18.9329 21.7149 18.5007C21.6953 18.0672 21.9998 18.0211 22.239 17.9003L22.2379 17.9015Z" fill="white"/>
</svg>
