<svg width="25" height="23" viewBox="0 0 25 23" fill="none" xmlns="http://www.w3.org/2000/svg">
<path d="M12.5073 2.12601C15.669 -0.836883 19.999 -0.468455 22.5869 1.91085C25.521 4.60656 25.8532 9.18659 23.1927 12.1593C21.459 14.0957 19.5676 15.8886 17.7391 17.7378C16.0096 19.4871 14.2689 21.2252 12.5031 22.9998C12.3733 22.8901 12.2463 22.7973 12.1374 22.6876C8.8362 19.3549 5.51962 16.0363 2.23933 12.6824C-1.35363 9.00801 -0.499362 3.1652 3.94229 0.836509C6.56792 -0.540172 9.74212 -0.197057 12.0062 1.70695C12.164 1.83914 12.3231 1.97132 12.5073 2.1246V2.12601ZM12.3901 21.4544C15.8421 17.9824 19.2061 14.6497 22.5018 11.2509C23.4482 10.2764 23.8153 8.96019 23.8627 7.59336C23.9507 5.06921 22.5227 2.75599 20.253 1.70274C17.9708 0.645264 15.3326 1.05869 13.4663 2.77005C13.1327 3.0766 12.8074 3.3916 12.4361 3.74174C12.0983 3.38175 11.8303 3.05692 11.5233 2.77567C10.0018 1.38071 8.20248 0.850571 6.19522 1.24009C3.78874 1.70555 2.1472 3.1652 1.41158 5.50935C0.674563 7.86054 1.21197 10.0008 2.92051 11.7642C5.66898 14.5991 8.46769 17.3848 11.2413 20.1972C11.6307 20.5924 11.9923 21.0171 12.3887 21.4544H12.3901Z" fill="black"/>
</svg>
