<svg width="22" height="26" viewBox="0 0 22 26" fill="none" xmlns="http://www.w3.org/2000/svg">
<path d="M8.73793 14.8948C5.8213 13.4658 4.11905 11.2411 3.95775 7.8911C3.85911 5.84196 4.47896 4.01729 5.77198 2.4977C8.56597 -0.783237 13.3448 -0.83792 16.0841 2.36963C17.7904 4.36841 18.3716 6.72407 17.8157 9.35745C17.2585 12.0024 15.6376 13.7234 13.2408 14.8789C13.8434 15.1005 14.2779 15.243 14.7005 15.42C18.7942 17.1324 21.1936 20.3457 21.9627 24.9966C21.9827 25.1146 22.0254 25.2556 21.9841 25.3506C21.8867 25.578 21.7468 25.7852 21.6241 25.9996C21.4828 25.8197 21.2762 25.6629 21.2149 25.4542C21.0949 25.047 21.0723 24.6081 20.983 24.1879C19.8912 19.0434 15.4696 15.3581 10.6748 15.5898C5.63068 15.8344 1.53434 19.7572 0.80918 25.0383C0.793184 25.1563 0.818512 25.3002 0.765191 25.3909C0.637222 25.6067 0.474595 25.7981 0.325298 25.9996C0.211992 25.7578 -0.019952 25.5031 0.00137618 25.2772C0.299971 22.2639 1.53967 19.7572 3.62183 17.7397C4.86153 16.5381 6.29452 15.692 7.8968 15.1854C8.12074 15.1149 8.34069 15.0315 8.73659 14.8948H8.73793ZM11.0027 14.3076C14.4485 14.3004 17.2199 11.2944 17.2132 7.57308C17.2065 3.87339 14.4006 0.867305 10.9587 0.873061C7.51422 0.880256 4.75622 3.88203 4.76289 7.61913C4.76955 11.3562 7.53022 14.3163 11.0027 14.3076Z" fill="black"/>
</svg>
