<svg width="60" height="66" viewBox="0 0 60 66" fill="none" xmlns="http://www.w3.org/2000/svg">
<path d="M43.0259 40.924C40.2829 39.9836 39.0598 41.8948 37.8367 43.5766C36.684 45.1614 35.4264 45.597 33.6746 44.3945C31.187 42.6872 28.7711 43.0075 26.3705 44.5413C24.8823 45.4927 23.644 45.3106 22.7854 43.8363C21.2986 41.2844 18.9476 40.3525 15.7863 40.8743C14.0773 41.157 13.0847 40.5503 13.0419 39.0044C12.9605 36.1431 11.3716 34.3581 8.24064 33.6349C6.39357 33.209 5.89108 32.1909 6.66966 30.742C8.09846 28.0809 7.27017 25.9392 4.87642 24.1057C3.54288 23.084 3.55116 22.0974 4.88056 21.0684C7.24946 19.2361 8.12745 17.1005 6.6669 14.437C5.86346 12.9736 6.42256 11.9373 8.23513 11.5344C11.4144 10.8294 12.9274 9.01652 13.0433 6.18191C13.1055 4.6736 14.0179 3.94068 15.7601 4.2404C19.0595 4.80708 21.4242 3.77929 22.951 1.15219C23.6951 -0.127998 24.7967 -0.35734 26.1165 0.544249C28.767 2.35349 31.4382 2.34622 34.0984 0.59279C35.5355 -0.35491 36.6288 -0.132851 37.4598 1.22863C38.9687 3.70042 41.194 4.84348 44.4382 4.24283C46.2742 3.90185 47.2833 4.6554 47.3054 6.26807C47.3454 9.20096 49.1166 10.8306 52.1964 11.5708C53.8765 11.9749 54.4452 12.919 53.7012 14.3144C52.2558 17.0289 52.993 19.2519 55.5151 21.1376C56.7575 22.0671 56.8473 23.0694 55.5538 24.0013C52.8591 25.9429 52.369 28.2957 53.7481 31.0272C54.4646 32.4457 53.7605 33.2126 52.2379 33.5681C49.0117 34.3229 47.3869 36.1261 47.2668 39.0808C47.1605 41.697 44.8095 40.6607 43.0259 40.924ZM45.6226 5.56791C40.7274 6.75102 37.5813 5.24271 35.6293 1.38638C31.9007 4.23676 28.3266 4.19914 24.6352 1.38759C22.7232 5.43807 19.4294 6.68064 14.7551 5.63586C14.9387 9.92539 12.7134 12.3911 7.85964 13.1483C10.2161 16.9694 9.43338 20.0273 5.70747 22.3947C7.06724 23.9771 8.8591 25.2196 9.24011 26.7352C9.63769 28.3212 8.67688 30.1705 8.26687 32.1108C12.164 32.8583 14.6378 34.6469 14.7634 38.3333C14.7758 38.701 16.09 39.4157 16.6643 39.3223C20.0575 38.769 22.2856 39.9933 23.8539 42.5173C24.0733 42.8716 24.4861 43.1325 25.0121 43.6252C28.4605 40.8306 32.0139 41.0005 35.6487 43.7574C37.5123 40.3476 40.1311 38.593 44.3181 39.3211C44.6853 39.3854 45.6861 38.468 45.6958 37.9948C45.762 34.8507 47.7251 33.209 50.9457 32.4069C51.3198 32.3134 51.6456 32.072 52.2793 31.7577C50.094 28.1744 50.9927 25.0667 54.9477 22.5185C50.7014 19.9691 50.3397 16.825 52.4132 13.1095C47.6547 12.3365 45.4086 9.97029 45.6226 5.56791Z" fill="black"/>
<path d="M20.9197 62.908C22.7516 57.7861 24.3791 53.1374 26.1103 48.519C26.3339 47.9208 27.0904 47.4767 27.6012 46.9622C27.6509 47.6029 27.9132 48.2994 27.7158 48.8758C26.0205 53.8242 24.248 58.752 22.4796 63.681C22.2698 64.2634 21.9426 64.8131 21.4235 65.8895C19.2589 63.4978 17.1965 61.5732 15.62 59.3793C13.9883 57.109 12.1012 56.4489 9.12624 56.9998C6.31421 57.5215 3.37517 57.5082 0.253906 57.4305C3.45523 51.7941 6.31421 46.1661 10.1423 41.0126C10.526 41.1813 10.9098 41.3512 11.2936 41.5199C8.85152 46.3797 5.58117 50.9083 2.80641 56.0363C6.00084 55.7536 8.8391 55.6043 11.6332 55.2184C13.3132 54.9867 14.3652 55.3653 15.3439 56.5836C16.9867 58.6282 18.8241 60.5515 20.9197 62.908Z" fill="black"/>
<path d="M59.7979 57.7552C56.6835 57.4918 53.5209 57.3547 50.4134 56.9191C48.1605 56.6036 46.6199 56.9676 45.2794 58.7356C43.4889 61.0982 41.3437 63.2545 39.0162 65.8767C38.4668 64.8405 38.0706 64.2629 37.8455 63.6379C36.0702 58.7162 34.3032 53.7933 32.6108 48.8497C32.4161 48.2818 32.6964 47.5877 32.7571 46.9531C33.2679 47.4773 34.0244 47.9299 34.2494 48.5354C35.9736 53.1574 37.5957 57.8086 39.4138 62.9123C41.4845 60.5825 43.3826 58.5852 45.093 56.4713C46.0304 55.3137 47.0395 54.9897 48.6105 55.1997C51.4198 55.5758 54.2622 55.7518 57.6016 56.0588C54.5921 51.0303 51.7897 46.3476 48.9874 41.6649C49.1834 41.4974 49.378 41.3288 49.5741 41.1613C50.0365 41.3688 50.7268 41.4695 50.9269 41.7996C53.9888 46.856 56.9872 51.9428 59.9925 57.0259C60.0201 57.0732 59.9608 57.1606 59.7979 57.7552Z" fill="black"/>
<path d="M30.2708 38.2852C20.2747 38.3179 12.2956 31.3661 12.29 22.6196C12.2845 13.8816 20.3023 6.80843 30.1948 6.82299C39.9686 6.83755 47.9892 13.8391 48.0941 22.4461C48.199 31.1416 40.1978 38.2524 30.2708 38.2852ZM30.2749 8.40532C21.277 8.37741 14.0115 14.7164 14.0032 22.605C13.9936 30.3444 21.2121 36.7271 30.0678 36.8096C38.8532 36.8909 46.2526 30.5106 46.3313 22.7858C46.4113 14.8669 39.2287 8.43444 30.2749 8.40532Z" fill="black"/>
<path d="M28.2988 24.5536C30.4441 22.5369 32.3768 20.7094 34.3246 18.8953C34.8837 18.3747 35.3959 17.6916 36.0944 17.4489C36.7736 17.2123 37.664 17.444 38.4619 17.4707C38.4012 18.1187 38.6303 19.0057 38.2341 19.3746C35.3282 22.083 32.3478 24.7368 29.2472 27.2717C28.793 27.643 27.2676 27.603 26.7693 27.2195C25.1845 26.0012 23.7529 24.5949 22.4815 23.1169C22.1019 22.6752 22.4401 21.7566 22.4497 21.0552C23.2449 21.1341 24.2513 20.9727 24.791 21.3404C25.9313 22.1158 26.8272 23.1678 28.2988 24.5536Z" fill="#0071BC"/>
</svg>
