<svg width="149" height="56" viewBox="0 0 149 56" fill="none" xmlns="http://www.w3.org/2000/svg">
<path d="M67.251 41.4408C64.9499 41.4034 62.8797 43.5227 62.8128 45.9855C62.7588 48.0955 64.2375 49.7334 66.2213 49.7591C68.5764 49.7872 70.5689 47.7263 70.6099 45.2214C70.6444 43.0203 69.2694 41.4759 67.251 41.4408ZM136.736 23.2877C135.089 19.3271 133.472 15.3526 131.832 11.392C131.335 10.1863 130.433 9.53207 129.237 9.50169C127.268 9.44561 125.298 9.483 123.329 9.48066C122.588 9.48066 122.215 9.82648 122.129 10.677C121.682 15.0581 121.22 19.4416 120.706 23.8134C120.561 25.0331 120.87 25.4584 122.049 25.4397C126.368 25.3766 130.69 25.4187 135.014 25.4093C135.441 25.4093 135.884 25.4935 136.274 25.206C136.555 25.1243 136.738 24.9397 136.799 24.6289C136.982 24.1686 136.928 23.748 136.736 23.2877ZM142.64 31.4939C142.459 31.4471 142.26 31.4869 142.07 31.4845C140.715 31.4541 139.963 30.6924 139.789 29.253C139.737 28.8231 139.892 28.1805 139.238 28.2763C138.64 28.3628 138.832 29.01 138.852 29.4306C138.94 31.4167 140.335 32.5103 142.908 32.515C143.331 32.1177 144.611 33.1085 144.594 31.9916C144.583 31.0078 143.322 31.6738 142.64 31.4939ZM142.64 31.4939C142.459 31.4471 142.26 31.4869 142.07 31.4845C140.715 31.4541 139.963 30.6924 139.789 29.253C139.737 28.8231 139.892 28.1805 139.238 28.2763C138.64 28.3628 138.832 29.01 138.852 29.4306C138.94 31.4167 140.335 32.5103 142.908 32.515C143.331 32.1177 144.611 33.1085 144.594 31.9916C144.583 31.0078 143.322 31.6738 142.64 31.4939ZM131.832 11.3943C131.335 10.1887 130.433 9.53441 129.237 9.50403C127.268 9.44795 125.298 9.48533 123.329 9.483C122.588 9.483 122.215 9.82882 122.129 10.6793C121.682 15.0605 121.22 19.444 120.706 23.8158C120.561 25.0355 120.87 25.4607 122.049 25.442C126.368 25.3789 130.69 25.421 135.014 25.4117C135.441 25.4117 135.884 25.4958 136.274 25.2084C136.555 25.1266 136.738 24.942 136.799 24.6312C136.98 24.1733 136.926 23.7503 136.736 23.2924C135.091 19.3271 133.472 15.3549 131.832 11.3943ZM67.251 41.4408C64.9499 41.4034 62.8797 43.5227 62.8128 45.9855C62.7588 48.0955 64.2375 49.7334 66.2213 49.7591C68.5764 49.7872 70.5689 47.7263 70.6099 45.2214C70.6444 43.0203 69.2694 41.4759 67.251 41.4408ZM144.369 25.1453C143.124 24.4513 142.224 23.484 141.645 22.0867C139.884 17.8387 138.066 13.6188 136.27 9.3872C135.031 6.46644 132.898 4.7794 129.995 4.31442C126.895 3.81906 123.763 4.09478 120.65 4.14385C119.089 4.16955 117.697 5.37991 117.585 6.90805C117.457 8.56938 116.469 8.19085 115.663 8.11842C114.383 8.00392 115.286 7.02255 115.251 6.46176C115.206 5.7491 115.346 5.01773 115.45 4.29806C115.881 1.31187 114.863 0.00103849 112.065 0.00103849C98.5236 -0.00129812 84.9844 0.00103849 71.4431 0.00103849C66.1609 0.00103849 60.8786 -0.00129812 55.5964 0.00103849C52.7707 0.0033751 51.2445 1.38665 50.8106 4.43359C50.571 6.12295 50.4566 7.83335 50.2753 9.5344C49.0297 21.2291 47.7842 32.9239 46.5365 44.6186C46.4674 45.2448 46.3875 45.864 46.9121 46.3313C47.3956 46.3243 47.877 46.3196 48.3605 46.315C47.9331 46.3453 47.51 46.4061 47.0869 46.5089C47.4971 47.0557 48.0669 46.822 48.5656 46.8267C51.2078 46.8477 53.8479 46.8711 56.4901 46.8197C57.3838 46.801 57.768 46.9435 57.9299 48.0908C58.3832 51.3013 60.0799 53.5655 62.9553 54.694C67.7065 56.561 73.3385 53.5538 75.1042 48.0931C75.4475 47.0346 75.8706 46.808 76.8204 46.8103C87.5295 46.8477 98.2386 46.801 108.946 46.8687C110.433 46.8804 111.279 46.6351 111.158 44.8125C111.124 44.2985 111.141 43.5648 111.976 43.719C112.635 43.8405 113.507 43.2447 113.785 44.5835C114.109 46.1514 115.176 46.8524 116.654 46.836C118.001 46.8197 119.348 46.8991 120.689 46.8103C121.632 46.7519 122.021 47.0253 122.146 48.1118C122.429 50.619 123.655 52.5677 125.634 53.8903C130.291 56.9863 136.784 54.5936 139.016 48.7591C139.666 47.058 140.449 46.7589 141.926 46.801C145.222 46.8945 147.107 45.0439 147.517 41.5109C147.836 38.7303 148.143 35.9498 148.41 33.1622C148.749 29.5708 147.363 26.809 144.369 25.1453ZM52.4879 46.3313C51.8381 46.3594 51.1884 46.3337 50.5386 46.3103C51.4086 46.3103 52.2807 46.3126 53.1549 46.3126C52.9326 46.3173 52.7102 46.322 52.4879 46.3313ZM65.8522 52.6775C62.5538 52.6846 60.1339 50.0722 60.1425 46.5159C60.1533 42.2796 63.6914 38.478 67.6158 38.485C70.8474 38.492 73.3924 41.2305 73.36 44.6747C73.3277 48.9109 69.8004 52.6682 65.8522 52.6775ZM113.108 4.22796C112.041 13.7029 111.052 23.1896 110.036 32.6668C109.656 36.2255 109.246 39.7771 108.913 43.3358C108.844 44.0812 108.633 44.3148 107.968 44.2868C106.815 44.2401 105.66 44.2704 104.507 44.2704C95.3352 44.2704 86.1631 44.2728 76.9909 44.2704C76.3541 44.2704 75.713 44.4901 75.577 43.3381C74.7956 36.6367 67.9677 33.9964 62.5991 37.5013C60.5721 38.8238 59.0524 40.6978 58.3508 43.1746C58.0767 44.1419 57.6234 44.3055 56.8139 44.2891C54.5106 44.2424 52.203 44.2401 49.8975 44.2891C49.1074 44.3078 48.9283 44.0298 49.0189 43.212C49.7572 36.5713 50.4674 29.9213 51.1754 23.276C51.8014 17.3994 52.4404 11.5275 53.0211 5.64863C53.2693 3.13677 53.7615 2.56196 56.0432 2.56196H83.8511C93.1679 2.5643 102.485 2.59233 111.802 2.53158C113.116 2.52224 113.248 2.95685 113.108 4.22796ZM130.072 52.6799C126.783 52.6822 124.317 50.0676 124.294 46.551C124.268 42.4128 127.884 38.52 131.784 38.4826C135.014 38.4546 137.535 41.1604 137.526 44.656C137.518 48.9039 134.019 52.6729 130.072 52.6799ZM146.034 32.9379C145.777 35.7722 145.472 38.6065 145.138 41.4315C144.896 43.4877 143.869 44.2681 141.354 44.2751C140.305 44.5906 139.92 44.0812 139.668 42.6652C138.679 37.0994 132.933 34.3282 127.884 36.8844C125.349 38.1672 123.493 40.2211 122.569 43.1021C122.284 43.9924 121.969 44.3499 121.084 44.2938C119.743 44.2074 118.396 44.2401 117.056 44.2821C116.257 44.3078 115.929 44.0601 116.033 43.1138C116.902 35.0852 117.744 27.052 118.593 19.0187C118.945 15.6727 119.299 12.3267 119.64 8.97829C119.86 6.82861 120.028 6.65337 122.042 6.65337C124.054 6.6557 126.07 6.64168 128.087 6.66037C130.981 6.68841 133.11 7.96887 134.327 10.9457C136.005 15.0605 137.807 19.1168 139.506 23.2246C140.287 25.1126 141.5 26.5029 143.201 27.3791C145.39 28.51 146.26 30.4143 146.034 32.9379ZM142.64 31.4939C142.459 31.4471 142.26 31.4869 142.07 31.4845C140.715 31.4541 139.963 30.6924 139.789 29.253C139.737 28.8231 139.892 28.1805 139.238 28.2763C138.64 28.3628 138.832 29.01 138.852 29.4306C138.94 31.4167 140.335 32.5103 142.908 32.515C143.331 32.1177 144.611 33.1085 144.594 31.9916C144.583 31.0078 143.322 31.6738 142.64 31.4939ZM131.832 11.3943C131.335 10.1887 130.433 9.53441 129.237 9.50403C127.268 9.44795 125.298 9.48533 123.329 9.483C122.588 9.483 122.215 9.82882 122.129 10.6793C121.682 15.0605 121.22 19.444 120.706 23.8158C120.561 25.0355 120.87 25.4607 122.049 25.442C126.368 25.3789 130.69 25.421 135.014 25.4117C135.441 25.4117 135.884 25.4958 136.274 25.2084C136.555 25.1266 136.738 24.942 136.799 24.6312C136.98 24.1733 136.926 23.7503 136.736 23.2924C135.091 19.3271 133.472 15.3549 131.832 11.3943ZM131.407 41.4431C129.071 41.4268 127.05 43.5601 127.053 46.0322C127.055 48.2076 128.471 49.7498 130.472 49.7591C132.801 49.7708 134.832 47.6422 134.858 45.1654C134.88 43.0694 133.384 41.4572 131.407 41.4431ZM67.251 41.4408C64.9499 41.4034 62.8797 43.5227 62.8128 45.9855C62.7588 48.0955 64.2375 49.7334 66.2213 49.7591C68.5764 49.7872 70.5689 47.7263 70.6099 45.2214C70.6444 43.0203 69.2694 41.4759 67.251 41.4408ZM136.736 23.2877C135.089 19.3271 133.472 15.3526 131.832 11.392C131.335 10.1863 130.433 9.53207 129.237 9.50169C127.268 9.44561 125.298 9.483 123.329 9.48066C122.588 9.48066 122.215 9.82648 122.129 10.677C121.682 15.0581 121.22 19.4416 120.706 23.8134C120.561 25.0331 120.87 25.4584 122.049 25.4397C126.368 25.3766 130.69 25.4187 135.014 25.4093C135.441 25.4093 135.884 25.4935 136.274 25.206C136.555 25.1243 136.738 24.9397 136.799 24.6289C136.982 24.1686 136.928 23.748 136.736 23.2877ZM142.64 31.4939C142.459 31.4471 142.26 31.4869 142.07 31.4845C140.715 31.4541 139.963 30.6924 139.789 29.253C139.737 28.8231 139.892 28.1805 139.238 28.2763C138.64 28.3628 138.832 29.01 138.852 29.4306C138.94 31.4167 140.335 32.5103 142.908 32.515C143.331 32.1177 144.611 33.1085 144.594 31.9916C144.583 31.0078 143.322 31.6738 142.64 31.4939ZM142.64 31.4939C142.459 31.4471 142.26 31.4869 142.07 31.4845C140.715 31.4541 139.963 30.6924 139.789 29.253C139.737 28.8231 139.892 28.1805 139.238 28.2763C138.64 28.3628 138.832 29.01 138.852 29.4306C138.94 31.4167 140.335 32.5103 142.908 32.515C143.331 32.1177 144.611 33.1085 144.594 31.9916C144.583 31.0078 143.322 31.6738 142.64 31.4939ZM136.736 23.2877C135.089 19.3271 133.472 15.3526 131.832 11.392C131.335 10.1863 130.433 9.53207 129.237 9.50169C127.268 9.44561 125.298 9.483 123.329 9.48066C122.588 9.48066 122.215 9.82648 122.129 10.677C121.682 15.0581 121.22 19.4416 120.706 23.8134C120.561 25.0331 120.87 25.4584 122.049 25.4397C126.368 25.3766 130.69 25.4187 135.014 25.4093C135.441 25.4093 135.884 25.4935 136.274 25.206C136.555 25.1243 136.738 24.9397 136.799 24.6289C136.982 24.1686 136.928 23.748 136.736 23.2877Z" fill="black"/>
<path d="M1.14409 34.6753C14.7199 34.2406 28.2936 33.8014 41.8716 33.4018C42.258 33.3901 43.2834 32.862 42.9812 34.0607C42.761 34.9393 43.6504 36.5936 41.7335 36.5212C36.3131 36.3179 30.8948 36.1193 25.4744 35.9534C16.9844 35.6917 8.49219 35.458 0 35.2103C0.123044 34.3878 0.833245 35.0328 1.14409 34.6753Z" fill="#0071BC"/>
<path d="M10.071 22.8219C21.1557 22.3896 32.2427 21.969 43.3274 21.4994C44.3096 21.4573 44.3053 21.7797 44.2858 22.7027C44.2513 24.364 43.7332 24.7215 42.1833 24.6491C31.39 24.1397 20.588 23.7729 9.79038 23.3593C9.61553 23.0181 9.88968 22.9481 10.071 22.8219Z" fill="#0071BC"/>
<path d="M18.4342 10.983C27.1573 10.5484 35.8827 10.1278 44.6058 9.66284C45.4801 9.61611 45.6226 9.9152 45.5492 10.7797C45.3722 12.8663 45.411 12.8196 43.5891 12.7261C35.4898 12.3032 27.3883 11.913 19.2869 11.5111C19.0904 11.17 18.3953 11.7681 18.4342 10.983Z" fill="#0071BC"/>
<path d="M46.9111 46.334C46.9435 46.1892 46.9932 45.9135 47.004 45.9135C50.4794 46.5186 53.9829 45.9462 57.4648 46.2125C57.5059 46.2149 57.5426 46.271 57.8469 46.5116C54.0822 46.5116 50.583 46.5116 47.0817 46.5116C47.0255 46.4509 46.9673 46.3925 46.9111 46.334Z" fill="#1D1D1D"/>
<path d="M10.0685 22.827C9.97572 23.0069 9.8829 23.1868 9.78791 23.3644C9.01727 23.3644 8.24878 23.3621 7.47814 23.3621C7.28818 23.1845 7.28818 23.0092 7.4803 22.8317C8.34161 22.8317 9.20507 22.8293 10.0685 22.827Z" fill="#5F5F5F"/>
<path d="M136.733 23.2916C136.923 23.7496 136.979 24.1725 136.796 24.6305C136.735 24.9436 136.55 25.1258 136.271 25.2076C135.883 25.495 135.438 25.4109 135.011 25.4109C130.689 25.4202 126.365 25.3805 122.046 25.4413C120.867 25.46 120.558 25.0347 120.703 23.815C121.217 19.4432 121.677 15.0597 122.126 10.6786C122.212 9.83038 122.583 9.48223 123.326 9.48223C125.294 9.48456 127.265 9.44718 129.234 9.50326C130.43 9.53363 131.332 10.1902 131.829 11.3936C133.469 15.3588 135.088 19.331 136.733 23.2916Z" fill="#FEFEFE"/>
<path d="M144.593 31.9889C144.611 33.1058 143.331 32.1174 142.907 32.5123C140.332 32.5099 138.94 31.4141 138.851 29.428C138.832 29.0074 138.64 28.3601 139.238 28.2737C139.892 28.1779 139.736 28.8204 139.788 29.2504C139.961 30.6897 140.714 31.4515 142.07 31.4818C142.26 31.4842 142.458 31.4445 142.64 31.4912C143.322 31.6734 144.583 31.0075 144.593 31.9889Z" fill="#FEFEFE"/>
<path d="M70.6081 45.2178C70.5671 47.7249 68.5746 49.7835 66.2195 49.7555C64.2357 49.7298 62.757 48.0918 62.811 45.9818C62.8779 43.5191 64.9481 41.3997 67.2492 41.4371C69.2676 41.4722 70.6426 43.0167 70.6081 45.2178Z" fill="#FCFCFC"/>
<path d="M134.858 45.1634C134.832 47.6425 132.802 49.7711 130.471 49.7571C128.47 49.7478 127.054 48.2056 127.052 46.0302C127.05 43.5581 129.07 41.4271 131.406 41.4411C133.385 41.4552 134.881 43.0674 134.858 45.1634Z" fill="#FCFCFC"/>
<path d="M54.8072 0.395752C74.1725 0.395752 93.5379 0.395752 112.903 0.395752C112.903 0.447157 112.903 0.500895 112.903 0.552301C93.5293 0.552301 74.1553 0.552301 54.7812 0.552301C54.7899 0.500895 54.7985 0.447157 54.8072 0.395752Z" fill="#181818"/>
<path d="M110.453 44.8959C110.783 45.9427 110.649 46.4965 109.498 46.4918C98.4569 46.4567 87.4153 46.4684 76.3738 46.4614C76.2853 46.4614 76.1989 46.403 76.0996 46.16C76.5702 46.16 77.0408 46.16 77.5135 46.16C87.9787 46.16 98.444 46.16 108.909 46.1576C109.671 46.1576 110.599 46.3983 110.453 44.8959Z" fill="#222222"/>
<path d="M120.794 6.00916C123.441 6.00916 126.089 6.00916 128.736 6.00916C128.736 6.05822 128.738 6.1073 128.738 6.1587C126.089 6.1587 123.441 6.1587 120.792 6.1587C120.794 6.1073 120.794 6.05822 120.794 6.00916Z" fill="#242424"/>
<path d="M116.132 46.2475C117.952 46.2475 119.769 46.2475 121.589 46.2475C121.589 46.2942 121.589 46.3409 121.591 46.3877C119.771 46.3877 117.954 46.3877 116.134 46.3877C116.134 46.3409 116.134 46.2942 116.132 46.2475Z" fill="#222222"/>
<path d="M136.733 23.2892C135.086 19.3287 133.469 15.3541 131.829 11.3936C131.332 10.1879 130.43 9.53363 129.234 9.50326C127.265 9.44718 125.294 9.48456 123.326 9.48223C122.585 9.48223 122.212 9.82804 122.126 10.6786C121.679 15.0597 121.217 19.4432 120.703 23.815C120.558 25.0347 120.867 25.46 122.046 25.4413C126.365 25.3782 130.687 25.4202 135.011 25.4109C135.438 25.4109 135.881 25.495 136.271 25.2076C136.159 24.9412 136.008 24.8244 135.84 24.7777C136.159 24.7496 136.476 24.7006 136.796 24.6305C136.979 24.1701 136.925 23.7496 136.733 23.2892ZM131.928 24.794C132.507 24.787 133.089 24.8104 133.67 24.8244C132.105 24.8127 130.538 24.808 128.975 24.808C129.962 24.8104 130.944 24.8034 131.928 24.794Z" fill="black"/>
<path d="M144.593 31.9889C144.611 33.1058 143.331 32.1174 142.907 32.5123C140.332 32.5099 138.94 31.4141 138.851 29.428C138.832 29.0074 138.64 28.3601 139.238 28.2737C139.892 28.1779 139.736 28.8204 139.788 29.2504C139.961 30.6897 140.714 31.4515 142.07 31.4818C142.26 31.4842 142.458 31.4445 142.64 31.4912C143.322 31.6734 144.583 31.0075 144.593 31.9889Z" fill="#0D0D0D"/>
<path d="M136.803 24.6237C136.742 24.9368 136.556 25.1191 136.278 25.2008C135.816 24.7826 135.263 24.9695 134.752 24.9672C130.622 24.9508 126.493 24.9672 122.365 24.9461C121.912 24.9438 121.301 25.2336 120.938 24.1657C121.683 24.7732 122.326 24.6424 122.95 24.6471C126.84 24.6541 130.73 24.6728 134.616 24.626C135.192 24.619 135.963 25.0887 136.362 24.0559C136.444 23.8503 136.528 24.5349 136.803 24.6237Z" fill="#1D1D1D"/>
<path d="M122.088 28.6694C122.476 28.6694 122.761 28.6647 123.044 28.6694C123.329 28.6741 123.581 28.6694 123.605 29.125C123.633 29.6695 123.348 29.6882 122.992 29.6812C122.709 29.6741 122.403 29.7536 122.146 29.6648C121.673 29.5012 120.786 30.1508 120.771 29.2208C120.753 28.1413 121.729 28.9381 122.088 28.6694Z" fill="#0D0D0D"/>
<path d="M70.6081 45.2178C70.5671 47.7249 68.5746 49.7835 66.2195 49.7555C64.2357 49.7298 62.757 48.0918 62.811 45.9818C62.8779 43.5191 64.9481 41.3997 67.2492 41.4371C69.2676 41.4722 70.6426 43.0167 70.6081 45.2178Z" fill="#010101"/>
<path d="M134.858 45.1634C134.832 47.6425 132.802 49.7711 130.471 49.7571C128.47 49.7478 127.054 48.2056 127.052 46.0302C127.05 43.5581 129.07 41.4271 131.406 41.4411C133.385 41.4552 134.881 43.0674 134.858 45.1634Z" fill="#010101"/>
</svg>
